<?xml version="1.0" standalone="no"?>
<!DOCTYPE svg PUBLIC "-//W3C//DTD SVG 20010904//EN"
 "http://www.w3.org/TR/2001/REC-SVG-20010904/DTD/svg10.dtd">
<svg version="1.0" xmlns="http://www.w3.org/2000/svg"
 width="1276.000000pt" height="1280.000000pt" viewBox="0 0 1276.000000 1280.000000"
 preserveAspectRatio="xMidYMid meet">
<g transform="translate(0.000000,1280.000000) scale(0.100000,-0.100000)"
fill="#000000" stroke="none">
<path d="M6125 12790 c-38 -5 -144 -13 -235 -20 -1712 -121 -3324 -962 -4431
-2310 -834 -1016 -1337 -2273 -1429 -3565 -6 -88 -15 -201 -21 -252 -12 -118
-12 -349 1 -483 5 -58 14 -175 20 -260 162 -2229 1518 -4237 3535 -5235 731
-361 1511 -575 2315 -635 80 -6 192 -15 250 -20 133 -13 365 -13 483 -1 51 6
164 15 252 21 942 67 1886 361 2710 845 1230 721 2185 1832 2710 3153 100 254
173 476 256 787 110 411 163 701 189 1045 6 80 15 192 20 250 13 134 13 345 0
463 -5 51 -14 157 -20 237 -88 1161 -443 2210 -1063 3140 -848 1272 -2109
2190 -3572 2604 -503 142 -751 186 -1220 216 -93 6 -211 15 -262 20 -106 11
-386 11 -488 0z m539 -41 c6 -5 -9 -44 -38 -99 -42 -80 -49 -101 -57 -183 -4
-50 -9 -110 -9 -133 l0 -41 75 -22 c42 -13 82 -21 89 -18 7 3 18 38 25 79 13
68 17 77 66 126 l53 53 34 -14 c147 -64 639 -287 716 -326 l97 -49 257 22 257
21 80 73 c44 39 82 72 84 72 3 0 173 -81 378 -180 l374 -180 169 0 168 0 117
-69 c334 -198 652 -430 966 -707 177 -156 262 -241 251 -251 -16 -17 -425 142
-663 257 -169 82 -287 152 -340 202 l-31 30 -373 30 -372 29 -74 -73 c-40 -40
-76 -80 -79 -90 -5 -16 48 -158 68 -185 6 -7 39 -13 76 -15 l66 -3 7 -35 c16
-73 22 -240 10 -240 -6 0 -58 27 -114 60 -56 33 -106 61 -112 62 -5 0 -44 -59
-86 -133 -67 -118 -79 -134 -100 -131 -13 1 -53 5 -89 8 -36 4 -69 10 -74 15
-6 5 -22 9 -37 9 -26 0 -46 17 -75 66 -10 17 -16 17 -74 6 -43 -8 -72 -20 -90
-37 -33 -32 -44 -32 -90 5 -35 28 -44 30 -117 30 l-80 0 -10 -34 -10 -34 40
-8 c22 -5 42 -14 44 -20 2 -6 -12 -31 -32 -54 -33 -39 -36 -47 -29 -83 l6 -40
-67 6 c-36 4 -112 23 -168 42 -138 49 -172 56 -232 43 -42 -9 -60 -21 -125
-87 -41 -42 -111 -116 -154 -165 l-80 -88 76 -74 c75 -73 76 -74 129 -74 81 0
196 -37 222 -72 19 -26 26 -28 86 -27 36 0 100 4 141 7 l75 7 106 88 c59 47
117 91 130 95 13 5 70 17 126 27 l102 18 107 -43 107 -43 104 12 c58 7 108 9
113 5 4 -5 13 -26 20 -46 6 -21 34 -73 63 -115 28 -43 77 -138 109 -210 32
-73 79 -165 105 -204 40 -60 50 -83 58 -143 10 -67 11 -71 35 -69 14 2 74 -2
133 -8 60 -6 111 -8 114 -5 3 3 -9 28 -27 56 -22 35 -56 67 -104 99 l-71 48
-84 214 c-45 118 -85 221 -88 230 -3 11 10 22 49 38 l53 22 19 -23 c10 -13 31
-48 46 -78 16 -30 50 -86 77 -125 45 -66 54 -73 154 -125 59 -30 114 -61 123
-69 12 -10 16 -32 16 -89 0 -61 4 -83 24 -116 22 -38 32 -44 127 -79 57 -20
112 -37 121 -37 10 0 59 22 110 50 79 41 97 56 117 93 l24 43 -37 51 c-20 28
-36 55 -36 62 0 7 35 11 109 11 l110 0 88 -96 c87 -96 89 -97 232 -165 l144
-69 -7 -83 -7 -82 81 -80 c44 -44 80 -87 80 -95 0 -9 -16 -31 -35 -50 l-34
-33 -178 77 c-98 43 -243 114 -323 158 -95 53 -155 81 -175 80 -100 -2 -475
-26 -483 -31 -9 -6 -2 -205 8 -214 3 -3 76 -51 162 -107 126 -82 193 -117 335
-176 163 -68 434 -215 463 -249 10 -11 9 -39 -3 -124 -13 -99 -19 -118 -66
-205 -29 -53 -57 -96 -62 -96 -5 0 -49 27 -97 59 -64 43 -134 108 -266 246
l-180 187 -43 -5 c-43 -5 -46 -3 -205 120 l-161 124 -65 -3 c-73 -3 -64 7 -97
-110 l-16 -58 -44 0 c-53 0 -75 19 -75 65 0 18 -3 41 -7 51 -3 9 -133 111
-287 226 -155 115 -281 215 -281 223 0 7 27 45 60 84 58 67 63 71 143 96 57
18 80 30 76 38 -4 7 -25 38 -47 70 -39 56 -40 57 -89 57 -46 0 -59 7 -169 82
l-120 82 -114 -28 -115 -28 -33 25 c-17 14 -84 69 -147 122 l-115 96 -95 -5
c-151 -7 -298 16 -425 65 l-108 42 -136 -13 -136 -12 -134 -95 c-74 -52 -143
-99 -155 -104 -12 -5 -77 -18 -146 -29 -112 -18 -131 -25 -187 -61 -35 -23
-98 -52 -142 -65 -70 -22 -84 -30 -117 -72 -21 -26 -43 -51 -49 -55 -5 -4 -64
-5 -130 -2 l-120 6 -132 -121 c-73 -66 -135 -131 -138 -143 -2 -12 -16 -75
-30 -139 -46 -210 -40 -199 -181 -347 -121 -126 -128 -136 -146 -199 -12 -44
-18 -100 -18 -164 0 -94 2 -102 51 -225 59 -148 192 -414 352 -703 107 -193
116 -207 167 -242 51 -34 62 -37 150 -43 52 -3 104 -8 115 -10 11 -3 80 -52
154 -110 74 -58 142 -105 151 -105 43 0 437 -31 450 -35 8 -3 30 -28 48 -56
l33 -51 48 7 c55 7 46 15 157 -116 l78 -91 41 5 c22 3 59 9 81 13 36 5 43 3
47 -12 10 -33 47 -291 47 -327 0 -45 -104 -191 -194 -270 -40 -35 -66 -66 -66
-78 0 -11 12 -91 26 -177 14 -86 36 -289 49 -451 l23 -294 -25 -86 c-14 -47
-31 -97 -38 -111 -7 -14 -65 -59 -128 -100 l-116 -75 -140 -419 c-78 -230
-141 -427 -141 -437 0 -11 19 -110 41 -222 l42 -202 -27 -190 c-25 -169 -31
-194 -55 -225 -15 -19 -54 -71 -88 -115 l-61 -80 -7 -110 c-4 -60 -16 -139
-27 -174 -11 -35 -16 -67 -11 -71 4 -5 41 -18 81 -30 l72 -21 86 41 87 40 150
0 151 0 187 -60 c103 -33 193 -60 201 -60 23 0 298 149 504 272 l191 114 101
11 c56 6 105 14 110 17 5 3 15 74 22 158 7 84 16 162 20 173 4 11 34 48 66 82
l59 62 123 15 c84 11 131 21 147 33 13 10 57 46 100 80 l76 63 77 0 77 0 225
201 c347 310 326 288 344 367 8 37 22 113 30 170 9 56 25 143 36 192 20 83 29
99 129 247 l107 158 115 10 c104 9 124 15 225 60 92 40 149 76 330 210 l219
161 69 114 c117 196 188 321 183 326 -2 2 -33 16 -68 29 l-63 25 -42 -41 -41
-40 -84 68 c-105 86 -107 87 -124 73 -18 -15 -20 -4 -35 142 -8 75 -8 114 0
127 23 43 12 72 -53 140 -73 77 -116 159 -183 346 -42 119 -47 144 -60 290
-12 135 -12 171 -1 230 9 48 12 103 7 175 -7 115 3 537 14 547 8 9 143 -18
163 -32 16 -12 15 -27 -5 -216 -13 -112 -22 -218 -22 -236 0 -17 20 -76 45
-131 l45 -99 0 -179 c0 -266 18 -394 81 -575 l51 -148 109 -138 c60 -76 116
-142 123 -147 10 -7 28 1 63 27 47 34 54 36 138 39 l89 3 282 310 282 310 17
93 17 93 -36 52 c-20 29 -84 115 -144 192 -124 161 -127 162 -213 99 -34 -25
-54 -33 -61 -26 -5 5 -15 50 -22 98 -10 71 -20 104 -52 162 -26 48 -45 72 -57
72 -10 0 -29 11 -42 25 -30 29 -31 62 -10 215 16 116 20 122 106 166 38 19 49
21 58 10 15 -17 115 -294 137 -379 l18 -68 122 -104 c67 -57 199 -176 293
-265 l171 -162 40 -131 c59 -189 56 -179 86 -329 l27 -137 71 -28 71 -28 -3
-200 c-2 -110 -14 -369 -28 -575 -13 -206 -24 -381 -24 -387 0 -7 18 -22 40
-33 23 -12 43 -27 46 -34 3 -8 -15 -85 -40 -172 -423 -1496 -1354 -2764 -2656
-3617 -951 -622 -2086 -981 -3215 -1016 -527 -16 -1022 24 -1487 119 l-142 30
-125 129 -126 130 -790 246 c-434 135 -809 252 -832 261 -47 17 -314 190 -468
304 -244 179 -443 349 -679 580 -334 327 -597 642 -842 1010 -154 231 -137
178 -195 589 -51 361 -51 363 -88 429 -21 37 -51 109 -66 161 l-29 93 17 136
c10 74 20 139 23 143 3 5 37 28 76 51 l71 42 -6 167 -7 167 105 78 105 78 0
106 0 105 236 310 c130 171 244 318 254 329 17 18 20 17 111 -9 l93 -28 38 43
c20 24 146 246 279 494 134 248 253 467 264 486 22 35 24 35 161 62 l139 27
58 63 58 63 -6 55 c-6 55 -37 124 -142 318 -40 73 -53 88 -105 120 -32 20 -87
55 -121 77 l-62 40 -5 185 -5 185 -179 95 -179 94 7 245 7 245 40 73 40 73
-36 60 c-40 65 -54 77 -166 138 -42 23 -81 48 -86 55 -5 6 -20 58 -33 114
l-23 102 17 181 18 181 -103 136 c-57 75 -108 142 -114 150 -8 11 -38 2 -155
-44 -134 -53 -152 -57 -241 -61 -129 -5 -133 1 -67 98 237 351 459 621 757
923 234 238 444 424 684 605 l107 82 148 0 c117 0 179 -5 301 -27 l154 -27 37
41 c20 23 42 59 48 81 12 41 88 147 140 195 33 32 82 46 155 47 37 0 65 9 121
40 158 87 205 98 540 125 165 14 313 25 328 25 21 0 42 18 100 85 40 47 84 88
97 92 30 7 214 -12 258 -27 20 -8 35 -22 44 -43 7 -18 21 -44 31 -59 10 -14
18 -42 18 -62 0 -20 4 -36 9 -36 5 0 51 45 102 100 80 87 104 122 177 258 46
86 89 162 95 169 7 6 70 16 144 22 73 5 137 12 142 15 9 6 81 129 81 139 0 3
-15 9 -32 13 l-33 7 25 9 c56 22 752 28 774 7z m-6495 -5256 c93 -357 129
-510 170 -728 l49 -260 -8 -215 -9 -215 96 -174 96 -174 -48 -171 -48 -171 -9
-305 -10 -305 57 -155 c59 -161 97 -334 161 -723 l28 -169 63 -105 c48 -81 75
-144 119 -275 51 -154 60 -198 34 -172 -15 15 -134 233 -203 370 -318 636
-529 1330 -622 2046 -60 463 -63 1049 -9 1533 15 134 48 351 60 388 9 28 23
20 33 -20z"/>
<path d="M8235 11353 l7 -128 -84 -95 c-56 -63 -92 -114 -108 -152 -13 -32
-21 -60 -19 -63 5 -4 432 14 437 20 6 5 -50 178 -75 235 -14 30 -35 105 -47
165 -24 117 -25 119 -94 140 l-24 7 7 -129z"/>
<path d="M9963 3244 l-132 -104 -161 -12 -162 -11 -86 -66 c-82 -63 -87 -69
-116 -143 -29 -74 -37 -82 -139 -174 -105 -93 -141 -114 -200 -114 -27 0 -28
-2 -22 -30 6 -27 0 -38 -49 -94 l-56 -64 0 -76 0 -76 28 0 c15 0 90 7 167 15
77 8 147 15 156 15 9 0 86 78 170 173 407 458 499 555 527 561 15 3 47 8 72
12 37 5 56 17 113 73 92 89 93 91 67 162 -13 32 -28 59 -34 59 -6 -1 -70 -48
-143 -106z"/>
</g>
</svg>
