<?xml version="1.0" standalone="no"?>
<!DOCTYPE svg PUBLIC "-//W3C//DTD SVG 20010904//EN"
 "http://www.w3.org/TR/2001/REC-SVG-20010904/DTD/svg10.dtd">
<svg version="1.0" xmlns="http://www.w3.org/2000/svg"
 width="1006.000000pt" height="1280.000000pt" viewBox="0 0 1006.000000 1280.000000"
 preserveAspectRatio="xMidYMid meet">
<metadata>
Created by potrace 1.15, written by Peter Selinger 2001-2017
</metadata>
<g transform="translate(0.000000,1280.000000) scale(0.100000,-0.100000)"
fill="#000000" stroke="none">
<path d="M2487 12790 c-553 -43 -1014 -232 -1477 -603 -370 -297 -714 -769
-886 -1215 -177 -458 -164 -963 36 -1377 84 -176 177 -304 334 -461 193 -192
367 -307 608 -400 354 -137 609 -134 1168 15 332 89 450 105 580 77 211 -45
331 -162 700 -686 67 -96 272 -374 454 -618 182 -243 332 -449 334 -457 5 -21
-1395 -1824 -1421 -1830 -12 -3 -58 -12 -102 -20 -145 -29 -217 -78 -290 -200
-51 -85 -73 -165 -90 -330 -8 -80 -15 -146 -15 -149 0 -2 -24 -12 -52 -21 -29
-10 -69 -27 -89 -40 -37 -24 -109 -122 -109 -149 0 -8 14 -24 30 -36 17 -12
30 -28 30 -35 0 -8 -58 -88 -128 -177 -71 -90 -195 -255 -277 -368 -181 -248
-308 -413 -654 -850 -644 -814 -1161 -1487 -1161 -1511 0 -6 24 -54 54 -108
29 -53 90 -167 135 -253 46 -88 89 -159 99 -162 9 -3 73 -17 142 -31 69 -15
172 -40 230 -56 58 -16 108 -29 112 -29 4 0 20 24 34 53 40 78 94 155 229 321
67 83 141 180 165 216 24 36 44 66 46 68 1 2 399 -304 884 -680 485 -376 885
-683 889 -683 4 0 52 58 106 130 55 72 172 222 260 335 89 113 169 217 179
231 l16 26 -52 40 c-29 22 -183 144 -343 272 -159 128 -314 249 -344 269 l-53
37 -27 -35 c-14 -19 -59 -75 -99 -125 l-72 -90 33 -30 c18 -16 51 -44 72 -61
l40 -31 -29 -37 c-16 -22 -34 -35 -42 -32 -7 3 -17 -1 -21 -9 -6 -11 -64 29
-238 166 -127 98 -234 185 -239 193 -7 10 0 26 23 55 18 22 37 41 43 41 5 0
52 -34 105 -75 52 -41 98 -75 103 -75 13 0 195 239 195 257 0 11 -44 51 -109
101 -88 66 -634 497 -736 579 l-24 20 82 111 c109 145 104 142 152 106 55 -42
465 -364 668 -526 95 -76 174 -138 176 -138 4 0 170 211 190 242 l17 26 -48
39 c-27 21 -72 56 -101 78 -51 39 -66 65 -37 65 8 0 15 8 15 18 0 11 9 27 20
37 19 17 21 17 73 -17 30 -20 136 -102 238 -183 101 -81 191 -150 198 -155 12
-6 6 -19 -28 -64 -38 -48 -46 -54 -60 -44 -9 7 -40 32 -68 56 -30 25 -59 42
-67 39 -8 -3 -34 -32 -58 -64 -23 -32 -64 -84 -91 -116 -26 -32 -45 -63 -41
-68 7 -13 200 -167 469 -376 121 -94 236 -187 254 -207 19 -20 42 -36 52 -36
9 0 35 27 58 60 24 33 175 230 337 437 162 207 294 382 294 389 0 29 -296 270
-930 757 -234 180 -488 375 -565 435 -76 59 -164 130 -195 159 l-55 51 25 34
c13 18 64 89 112 158 49 69 104 144 124 168 l35 43 51 -46 c69 -62 92 -61 123
7 30 66 64 194 72 271 3 33 11 60 17 62 6 2 61 9 122 17 252 33 347 125 399
385 39 195 52 221 191 378 34 39 110 138 170 221 225 312 859 1173 864 1173 3
0 27 -30 55 -67 195 -263 735 -997 800 -1087 75 -105 194 -257 276 -355 51
-61 65 -97 89 -236 51 -289 166 -394 461 -420 l76 -7 7 -68 c7 -77 55 -236 86
-286 27 -45 51 -42 111 14 l51 48 25 -30 c13 -17 81 -109 149 -205 l125 -175
-33 -28 c-92 -79 -298 -240 -628 -492 -454 -346 -630 -484 -840 -660 -240
-200 -255 -215 -242 -235 6 -10 113 -148 238 -306 242 -307 363 -466 404 -527
14 -20 31 -37 39 -37 8 0 29 15 47 34 19 19 134 112 256 207 298 230 439 343
460 366 17 18 13 24 -78 141 -52 67 -99 122 -104 122 -5 0 -37 -22 -71 -50
-34 -27 -67 -50 -74 -50 -6 0 -28 23 -50 51 -35 46 -37 52 -22 61 10 5 82 59
160 121 235 184 319 247 328 247 6 0 19 -16 30 -35 12 -19 25 -35 30 -35 28 0
-1 -34 -81 -94 -49 -38 -94 -74 -100 -80 -10 -13 14 -48 144 -214 59 -74 23
-90 300 131 666 531 630 504 652 487 23 -20 174 -223 174 -235 0 -5 -51 -48
-112 -95 -61 -47 -231 -180 -377 -295 -146 -116 -292 -230 -324 -254 -31 -24
-57 -48 -57 -55 0 -16 187 -250 202 -254 7 -1 55 31 107 73 52 41 97 75 102
75 9 0 84 -89 78 -94 -2 -1 -103 -80 -225 -173 -121 -94 -226 -178 -233 -187
-17 -20 -31 -21 -31 -2 0 9 -7 12 -18 9 -13 -3 -27 7 -46 31 -15 20 -25 40
-22 44 3 5 35 31 70 58 36 27 66 52 66 56 0 4 -23 35 -51 70 -29 35 -72 89
-97 121 -25 31 -48 57 -52 57 -10 0 -135 -96 -450 -346 -146 -115 -282 -223
-303 -238 -45 -34 -54 -15 107 -220 86 -109 396 -511 412 -534 6 -9 657 491
1383 1061 216 170 397 305 401 300 4 -4 30 -43 58 -85 29 -42 94 -128 146
-190 120 -145 197 -253 232 -323 19 -40 31 -54 43 -51 52 16 310 77 383 92 49
9 94 22 102 28 8 6 62 101 119 211 57 110 118 222 135 250 31 50 31 50 12 79
-10 16 -396 516 -857 1110 -462 595 -907 1173 -989 1286 -82 113 -197 265
-256 339 -60 74 -108 140 -108 147 0 7 14 22 30 34 38 27 38 44 0 103 -36 57
-96 101 -166 124 l-53 16 -6 66 c-28 306 -66 415 -180 520 -60 55 -113 80
-209 97 -44 8 -93 20 -107 25 -14 6 -71 67 -130 142 -57 72 -149 188 -204 257
-263 328 -1085 1407 -1085 1423 0 7 82 120 181 252 320 426 534 717 659 896
293 417 414 541 588 601 58 20 85 23 202 22 128 -1 145 -4 315 -49 500 -133
565 -145 782 -145 234 0 423 45 647 154 184 90 313 183 466 336 305 304 451
607 491 1016 14 141 7 361 -16 488 -61 342 -266 760 -539 1100 -176 220 -441
468 -645 606 -310 208 -614 338 -948 404 -210 42 -312 51 -618 51 -275 -1
-294 -2 -365 -24 -210 -65 -534 -222 -680 -332 -351 -261 -564 -624 -621
-1056 -17 -133 -6 -430 20 -553 44 -204 98 -329 252 -585 193 -321 257 -477
266 -645 9 -157 -33 -276 -168 -478 -100 -149 -311 -413 -473 -592 -78 -86
-230 -268 -367 -441 -61 -77 -115 -139 -119 -137 -5 2 -82 93 -171 203 -90
110 -244 295 -343 410 -253 295 -266 311 -333 400 -222 295 -292 456 -279 640
11 167 72 314 256 620 161 268 217 396 261 595 110 507 -44 1073 -391 1434
-208 217 -487 381 -859 506 -92 31 -95 31 -335 35 -132 2 -289 0 -349 -5z
m655 -891 c255 -53 467 -332 468 -615 0 -76 -31 -199 -67 -267 -35 -65 -135
-167 -190 -196 -23 -11 -72 -32 -107 -45 -67 -24 -166 -82 -166 -97 0 -5 11
-32 23 -62 37 -82 51 -154 51 -252 0 -114 -15 -177 -71 -295 -40 -82 -58 -107
-142 -190 -140 -139 -278 -205 -453 -217 -151 -10 -271 24 -388 112 -68 51
-120 75 -161 75 -10 0 -33 -28 -55 -66 -73 -124 -198 -229 -330 -275 -207 -73
-422 -32 -572 108 -184 172 -227 434 -111 664 59 117 178 234 305 297 65 33
154 62 191 62 13 0 23 3 23 8 0 4 -13 46 -30 94 -94 277 -35 553 160 748 158
158 366 220 586 174 88 -18 215 -61 305 -104 35 -16 69 -30 75 -30 6 0 18 16
27 35 25 51 148 176 227 229 150 101 271 132 402 105z m3972 -5 c157 -40 355
-189 437 -329 25 -42 18 -43 148 15 153 67 266 94 401 94 96 1 127 -3 189 -23
159 -52 308 -186 386 -346 90 -184 98 -363 24 -575 -16 -46 -29 -85 -29 -86 0
-1 20 -4 45 -7 64 -9 181 -57 249 -102 333 -221 391 -652 123 -915 -105 -104
-253 -157 -404 -147 -102 7 -227 49 -305 101 -75 49 -166 148 -203 219 -22 42
-36 57 -51 57 -39 0 -89 -23 -155 -71 -127 -94 -241 -127 -398 -116 -173 12
-340 93 -466 228 -137 145 -196 291 -196 480 0 86 4 111 32 187 17 48 32 98
33 111 1 33 -55 71 -157 107 -230 79 -359 265 -359 514 0 170 66 324 191 451
142 143 301 195 465 153z"/>
</g>
</svg>
